HIERARCHY
ROOT hips
{
  OFFSET 0 10.6860622 2.3727825e-15
  CHANNELS 6 Xposition Yposition Zposition Yrotation Xrotation Zrotation
  JOINT leftUpperLeg
  {
    OFFSET 0.6642549969 -0.9402397400000004 0
    CHANNELS 3 Yrotation Xrotation Zrotation
    JOINT leftLowerLeg
    {
      OFFSET 0 -3.997221335632195 0
      CHANNELS 3 Yrotation Xrotation Zrotation
      JOINT leftFoot
      {
        OFFSET -0.13777839790000004 -4.6145792000000005 -0.22186036399999998
        CHANNELS 3 Yrotation Xrotation Zrotation
        JOINT leftToes
        {
          OFFSET -0.03777410834999995 -0.9130806927000008 0.85230013
          CHANNELS 3 Yrotation Xrotation Zrotation
          End Site
          {
            OFFSET -0.03777410834999995 -0.9130806927000008 0.85230013
          }
        }
      }
    }
  }
  JOINT rightUpperLeg
  {
    OFFSET -0.6642778626 -0.9402397400000004 0
    CHANNELS 3 Yrotation Xrotation Zrotation
    JOINT rightLowerLeg
    {
      OFFSET 0 -3.997221452859387 0
      CHANNELS 3 Yrotation Xrotation Zrotation
      JOINT rightFoot
      {
        OFFSET 0.1377926176 -4.6145792000000005 -0.22185782299999995
        CHANNELS 3 Yrotation Xrotation Zrotation
        JOINT rightToes
        {
          OFFSET 0.037780746850000047 -0.9130806927000008 0.85230167
          CHANNELS 3 Yrotation Xrotation Zrotation
          End Site
          {
            OFFSET 0.037780746850000047 -0.9130806927000008 0.85230167
          }
        }
      }
    }
  }
  JOINT spine
  {
    OFFSET 0 0.13988381660000015 0
    CHANNELS 3 Yrotation Xrotation Zrotation
    JOINT chest
    {
      OFFSET 0 0.6191039003973773 0
      CHANNELS 3 Yrotation Xrotation Zrotation
      JOINT upperChest
      {
        OFFSET 0 0.9855186130586943 0
        CHANNELS 3 Yrotation Xrotation Zrotation
        JOINT leftShoulder
        {
          OFFSET 0.1807663869 1.5087829790000005 0
          CHANNELS 3 Yrotation Xrotation Zrotation
          JOINT leftUpperArm
          {
            OFFSET 0.5985063006419806 0 0
            CHANNELS 3 Yrotation Xrotation Zrotation
            JOINT leftLowerArm
            {
              OFFSET 2.2993332369501065 0 0
              CHANNELS 3 Yrotation Xrotation Zrotation
              JOINT leftHand
              {
                OFFSET 2.395047042602395 0 0
                CHANNELS 3 Yrotation Xrotation Zrotation
                JOINT leftIndexProximal
                {
                  OFFSET 0.5766295810000004 0.04556643899499946 0.17265095988184
                  CHANNELS 3 Yrotation Xrotation Zrotation
                  JOINT leftIndexIntermediate
                  {
                    OFFSET 0.2957229000000008 -0.019352197700001517 -0.007932640616999987
                    CHANNELS 3 Yrotation Xrotation Zrotation
                    JOINT leftIndexDistal
                    {
                      OFFSET 0.19008243099999922 -0.012484908149998475 -0.002786250786000012
                      CHANNELS 3 Yrotation Xrotation Zrotation
                      End Site
                      {
                        OFFSET 0.19008243099999922 -0.012484908149998475 -0.002786250786000012
                      }
                    }
                  }
                }
                JOINT leftMiddleProximal
                {
                  OFFSET 0.5834975091000001 0.0524350405149987 0.02204081888183999
                  CHANNELS 3 Yrotation Xrotation Zrotation
                  JOINT leftMiddleIntermediate
                  {
                    OFFSET 0.33880573540000003 -0.019871473270000717 -0.00000971183179999946
                    CHANNELS 3 Yrotation Xrotation Zrotation
                    JOINT leftMiddleDistal
                    {
                      OFFSET 0.20676022730000088 -0.012221336379999448 0.0001471936708000235
                      CHANNELS 3 Yrotation Xrotation Zrotation
                      End Site
                      {
                        OFFSET 0.20676022730000088 -0.012221336379999448 0.0001471936708000235
                      }
                    }
                  }
                }
                JOINT leftLittleProximal
                {
                  OFFSET 0.5344154683999995 -0.012880921405001189 -0.24414037221816004
                  CHANNELS 3 Yrotation Xrotation Zrotation
                  JOINT leftLittleIntermediate
                  {
                    OFFSET 0.21758961730000093 -0.011650919939999227 0.011893592810000034
                    CHANNELS 3 Yrotation Xrotation Zrotation
                    JOINT leftLittleDistal
                    {
                      OFFSET 0.1475273964999999 -0.008152365682999818 0.006001092492999946
                      CHANNELS 3 Yrotation Xrotation Zrotation
                      End Site
                      {
                        OFFSET 0.1475273964999999 -0.008152365682999818 0.006001092492999946
                      }
                    }
                  }
                }
                JOINT leftRingProximal
                {
                  OFFSET 0.5799399463000003 0.026911854694997794 -0.12150566991816003
                  CHANNELS 3 Yrotation Xrotation Zrotation
                  JOINT leftRingIntermediate
                  {
                    OFFSET 0.26167887460000006 -0.013480186499999602 0.010996293000000053
                    CHANNELS 3 Yrotation Xrotation Zrotation
                    JOINT leftRingDistal
                    {
                      OFFSET 0.17667108799999987 -0.008990287899999228 0.0055541023999999065
                      CHANNELS 3 Yrotation Xrotation Zrotation
                      End Site
                      {
                        OFFSET 0.17667108799999987 -0.008990287899999228 0.0055541023999999065
                      }
                    }
                  }
                }
                JOINT leftThumbProximal
                {
                  OFFSET 0.11018806699999972 -0.09448718900500053 0.17047963138184
                  CHANNELS 3 Yrotation Xrotation Zrotation
                  JOINT leftThumbIntermediate
                  {
                    OFFSET 0.31062601459999983 -0.08126270900000132 0.15443142000000007
                    CHANNELS 3 Yrotation Xrotation Zrotation
                    JOINT leftThumbDistal
                    {
                      OFFSET 0.21627175790000086 -0.08833193599999878 0.018771167799999988
                      CHANNELS 3 Yrotation Xrotation Zrotation
                      End Site
                      {
                        OFFSET 0.21627175790000086 -0.08833193599999878 0.018771167799999988
                      }
                    }
                  }
                }
              }
            }
          }
        }
        JOINT neck
        {
          OFFSET 0 1.5463305265074576 0
          CHANNELS 3 Yrotation Xrotation Zrotation
          JOINT head
          {
            OFFSET 0 0.8456443600000344 0
            CHANNELS 3 Yrotation Xrotation Zrotation
            JOINT leftEye
            {
              OFFSET 0.30408573140000006 0.5104519199999995 0.1276382305
              CHANNELS 3 Yrotation Xrotation Zrotation
              End Site
              {
                OFFSET 0.30408573140000006 0.5104519199999995 0.1276382305
              }
            }
            JOINT rightEye
            {
              OFFSET -0.30409491089999996 0.5104519199999995 0.1276379445
              CHANNELS 3 Yrotation Xrotation Zrotation
              End Site
              {
                OFFSET -0.30409491089999996 0.5104519199999995 0.1276379445
              }
            }
            JOINT jaw
            {
              OFFSET -3.155239131000001e-7 -0.11984121820000082 0.60178107
              CHANNELS 3 Yrotation Xrotation Zrotation
              End Site
              {
                OFFSET -3.155239131000001e-7 -0.11984121820000082 0.60178107
              }
            }
          }
        }
        JOINT rightShoulder
        {
          OFFSET -0.1807303465 1.5087829790000005 0
          CHANNELS 3 Yrotation Xrotation Zrotation
          JOINT rightUpperArm
          {
            OFFSET -0.5985063796536958 0 0
            CHANNELS 3 Yrotation Xrotation Zrotation
            JOINT rightLowerArm
            {
              OFFSET -2.2993322059002854 0 0
              CHANNELS 3 Yrotation Xrotation Zrotation
              JOINT rightHand
              {
                OFFSET -2.395045314457259 0 0
                CHANNELS 3 Yrotation Xrotation Zrotation
                JOINT rightIndexProximal
                {
                  OFFSET -0.5764487688300002 0.0441371204405987 0.17361932004999997
                  CHANNELS 3 Yrotation Xrotation Zrotation
                  JOINT rightIndexIntermediate
                  {
                    OFFSET -0.29573011380000047 -0.01934826376999843 -0.007698921482999974
                    CHANNELS 3 Yrotation Xrotation Zrotation
                    JOINT rightIndexDistal
                    {
                      OFFSET -0.19008373999999884 -0.012503266380000655 -0.0026365778999999897
                      CHANNELS 3 Yrotation Xrotation Zrotation
                      End Site
                      {
                        OFFSET -0.19008373999999884 -0.012503266380000655 -0.0026365778999999897
                      }
                    }
                  }
                }
                JOINT rightMiddleProximal
                {
                  OFFSET -0.5834852037300005 0.05211639405060153 0.02307162440000001
                  CHANNELS 3 Yrotation Xrotation Zrotation
                  JOINT rightMiddleIntermediate
                  {
                    OFFSET -0.33880114510000003 -0.019952774050000954 0.0002455003561999819
                    CHANNELS 3 Yrotation Xrotation Zrotation
                    JOINT rightMiddleDistal
                    {
                      OFFSET -0.20675694929999955 -0.012273788999999091 0.00030209124000002766
                      CHANNELS 3 Yrotation Xrotation Zrotation
                      End Site
                      {
                        OFFSET -0.20675694929999955 -0.012273788999999091 0.00030209124000002766
                      }
                    }
                  }
                }
                JOINT rightLittleProximal
                {
                  OFFSET -0.5346811737299992 -0.011214256288399227 -0.24363941305000003
                  CHANNELS 3 Yrotation Xrotation Zrotation
                  JOINT rightLittleIntermediate
                  {
                    OFFSET -0.21757715980000092 -0.011771559690000988 0.01201554387
                    CHANNELS 3 Yrotation Xrotation Zrotation
                    JOINT rightLittleDistal
                    {
                      OFFSET -0.1475201849000004 -0.00822055339600003 0.006082065407000015
                      CHANNELS 3 Yrotation Xrotation Zrotation
                      End Site
                      {
                        OFFSET -0.1475201849000004 -0.00822055339600003 0.006082065407000015
                      }
                    }
                  }
                }
                JOINT rightRingProximal
                {
                  OFFSET -0.5800810755299999 0.027657985680600072 -0.12066365025000003
                  CHANNELS 3 Yrotation Xrotation Zrotation
                  JOINT rightRingIntermediate
                  {
                    OFFSET -0.26166445029999974 -0.013623118409999302 0.011164098990000045
                    CHANNELS 3 Yrotation Xrotation Zrotation
                    JOINT rightRingDistal
                    {
                      OFFSET -0.17666387530000027 -0.009072900100000503 0.005668185599999959
                      CHANNELS 3 Yrotation Xrotation Zrotation
                      End Site
                      {
                        OFFSET -0.17666387530000027 -0.009072900100000503 0.005668185599999959
                      }
                    }
                  }
                }
                JOINT rightThumbProximal
                {
                  OFFSET -0.10997596379000074 -0.09577489355940072 0.16989765924999997
                  CHANNELS 3 Yrotation Xrotation Zrotation
                  JOINT rightThumbIntermediate
                  {
                    OFFSET -0.31036620999999986 -0.08229339117999834 0.15440884469999996
                    CHANNELS 3 Yrotation Xrotation Zrotation
                    JOINT rightThumbDistal
                    {
                      OFFSET -0.21631306399999906 -0.08825326400000111 0.018656797720000014
                      CHANNELS 3 Yrotation Xrotation Zrotation
                      End Site
                      {
                        OFFSET -0.21631306399999906 -0.08825326400000111 0.018656797720000014
                      }
                    }
                  }
                }
              }
            }
          }
        }
      }
    }
  }
}
MOTION
Frames: 6
Frame Time: 0.03333333333333333
-0.2673836531505085 1.151926208832116 -1.0127229469655916 7.062528520932403e-15 6.530028977009235 -180 -25.75866328763131 -58.45362959673185 41.18538111533137 25.802397056290356 74.2101235546597 -39.47797918136223 -14.742435317816321 60.19646501461815 13.560102907908428 0 0 0 49.84809827684717 -59.85175313248181 -59.25280828981115 21.596690702005606 79.85651944290268 77.99386594946665 21.041445204335297 59.188418784599 -3.1314306488892627 0 0 0 -0.21396846706040382 1.0481442647509145 -0.043805187918652976 -1.195265689755041 8.6840693382681 -0.2928346174788499 0 0 0 10.82405714028002 3.2444271629074652 -16.796316034670454 -72.82636945866557 0.9365122887130827 -2.209633723759638 -46.574617092865935 -18.013752163912116 -6.218550956254697 -20.442992987649987 -46.90352265175915 -16.72818084999761 0 0 0 0 0 0 0 0 0 0 0 0 0 0 0 0 0 0 0 0 0 0 0 0 0 0 0 0 0 0 0 0 0 0 0 0 0 0 0 0 0 0 0 0 0 0 50.523837296436064 0 0 -80.40996790941924 0 0 0 0 0 0 0 0 0 0 -12.104708536665264 3.126573902860041 16.983676920828415 72.8619948655595 0.9708050158439655 2.209660835672158 48.28096022779196 -18.248970386290136 6.153668668286297 18.33237820842602 -46.59688268432923 17.779314128371738 0 0 0 0 0 0 0 0 0 0 0 0 0 0 0 0 0 0 0 0 0 0 0 0 0 0 0 0 0 0 0 0 0 0 0 0 0 0 0 0 0 0 0 0 0
-0.2612028475346009 1.1413919463794882 -0.9978893087189117 7.059299221960227e-15 6.296905637497036 -180 -26.3934911805288 -58.539786724582086 41.74563173287364 25.802397056290356 74.2101235546597 -39.47797918136223 -14.95942584872405 60.0202559318671 13.16240415449278 0 0 0 50.160840068860345 -59.92287282004427 -59.49050309942435 21.596690702005606 79.85651944290268 77.99386594946665 20.987332174428524 59.039754797348174 -3.1515024899692734 0 0 0 -0.21396846706040382 1.0481442647509145 -0.043805187918652976 -1.1926737444200068 7.853954953392193 -0.2753278379165977 0 0 0 10.689152965992097 3.6781584145758663 -16.898218424306368 -72.82636945866557 0.9365122887130827 -2.209633723759638 -46.06143228769179 -17.961738824617456 -6.183561911116463 -20.424799103579588 -46.8959255255991 -17.14313466879514 0 0 0 0 0 0 0 0 0 0 0 0 0 0 0 0 0 0 0 0 0 0 0 0 0 0 0 0 0 0 0 0 0 0 0 0 0 0 0 0 0 0 0 0 0 0 50.523837296436064 0 0 -79.61272038725018 0 0 0 0 0 0 0 0 0 0 -11.922183640056414 3.5450104898391386 17.072464925534984 72.8619948655595 0.9708050158439655 2.209660835672158 47.7018181628307 -18.190619638292027 6.1199574527039236 18.339052127438602 -46.5732649142794 18.212051484515154 0 0 0 0 0 0 0 0 0 0 0 0 0 0 0 0 0 0 0 0 0 0 0 0 0 0 0 0 0 0 0 0 0 0 0 0 0 0 0 0 0 0 0 0 0
-0.2550220419186932 1.13085768392686 -0.9830556704722317 7.056189606540024e-15 6.063782171592401 -180 -27.031439295526614 -58.62267967032615 42.309035001195234 25.802397056290356 74.2101235546597 -39.47797918136223 -15.172823352008717 59.843302130048464 12.768146786425554 0 0 0 50.47484227287425 -59.993339454920495 -59.72947627568366 21.596690702005606 79.85651944290268 77.99386594946665 20.933553397231467 58.89108986701177 -3.1712162240633517 0 0 0 -0.21396846706040382 1.0481442647509145 -0.043805187918652976 -1.190342061811751 7.0238404808644255 -0.2578919926111838 0 0 0 10.553406907815269 4.1116486729059325 -17.001196504814157 -72.82636945866557 0.9365122887130827 -2.209633723759638 -45.54836476609369 -17.91002432004943 -6.148094749312886 -20.406689562320125 -46.88823952882151 -17.55802747601035 0 0 0 0 0 0 0 0 0 0 0 0 0 0 0 0 0 0 0 0 0 0 0 0 0 0 0 0 0 0 0 0 0 0 0 0 0 0 0 0 0 0 0 0 0 0 50.523837296436064 0 0 -78.81549134265138 0 0 0 0 0 0 0 0 0 0 -11.738922807342322 3.9631619298488485 17.162633437231907 72.8619948655595 0.9708050158439655 2.209660835672158 47.12283514913526 -18.13259565964041 6.085638218918151 18.34598240189806 -46.54968225397311 18.644603283850667 0 0 0 0 0 0 0 0 0 0 0 0 0 0 0 0 0 0 0 0 0 0 0 0 0 0 0 0 0 0 0 0 0 0 0 0 0 0 0 0 0 0 0 0 0
-0.24266069907914925 1.1097891590216042 -0.953388393978872 7.0503273448014556e-15 5.5974581011744915 -180 -28.31682526709263 -58.77866035717185 43.445360332518725 25.802397056290356 74.2101235546597 -39.47797918136223 -15.589161964367534 59.48713348736571 11.989537392642088 0 0 0 51.106676113660065 -60.13231784726042 -60.21131951471454 21.596690702005606 79.85651944290268 77.99386594946665 20.826957588504616 58.593668063582854 -3.209604962839244 0 0 0 -0.21396846706040382 1.0481442647509145 -0.043805187918652976 -1.1864426151707237 5.35973368356141 -0.22312113764395783 0 0 0 10.279120410506728 4.978513726369252 -17.21058869995493 -72.82636945866557 0.9365122887130827 -2.209633723759638 -44.52160260502163 -17.80742065727062 -6.075669399899418 -20.370700932330944 -46.872596080488876 -18.388085775301786 0 0 0 0 0 0 0 0 0 0 0 0 0 0 0 0 0 0 0 0 0 0 0 0 0 0 0 0 0 0 0 0 0 0 0 0 0 0 0 0 0 0 0 0 0 0 50.523837296436064 0 0 -77.21757919509476 0 0 0 0 0 0 0 0 0 0 -11.369840138188913 4.799187339231447 17.34727695415864 72.8619948655595 0.9708050158439655 2.209660835672158 45.96395870347567 -18.017416943165628 6.01510895821697 18.360617857274768 -46.5025972563893 19.509715028349383 0 0 0 0 0 0 0 0 0 0 0 0 0 0 0 0 0 0 0 0 0 0 0 0 0 0 0 0 0 0 0 0 0 0 0 0 0 0 0 0 0 0 0 0 0
-0.2364798934632416 1.0992548965689761 -0.938554755732192 7.047574534057108e-15 5.364249844404275 -180 -28.964008450737186 -58.85168448716826 44.018025620342115 25.802397056290356 74.2101235546597 -39.47797918136223 -15.792164341521191 59.30794569884811 11.605121301475897 0 0 0 51.42448874765578 -60.20080779766192 -60.45416800101435 21.596690702005606 79.85651944290268 77.99386594946665 20.774137411509287 58.44494261272971 -3.2282783115756386 0 0 0 -0.21396846706040382 1.0481442647509145 -0.043805187918652976 -1.1848738918899957 4.526087869877953 -0.20577918920723529 0 0 0 10.140562933722354 5.411824852153926 -17.317018623927677 -72.82636945866557 0.9365122887130827 -2.209633723759638 -44.00799868734466 -17.75654349164344 -6.038723494537221 -20.352831886615657 -46.864638707766034 -18.80319579484495 0 0 0 0 0 0 0 0 0 0 0 0 0 0 0 0 0 0 0 0 0 0 0 0 0 0 0 0 0 0 0 0 0 0 0 0 0 0 0 0 0 0 0 0 0 0 50.52383192473957 0 0 -76.41722617167403 0 0 0 0 0 0 0 0 0 0 -11.184000890744704 5.216996670993779 17.4417688982625 72.8619948655595 0.9708050158439655 2.209660835672158 45.38418272247592 -17.9602848543576 5.9789097027774805 18.3683235722161 -46.479089882270564 19.94222007243436 0 0 0 0 0 0 0 0 0 0 0 0 0 0 0 0 0 0 0 0 0 0 0 0 0 0 0 0 0 0 0 0 0 0 0 0 0 0 0 0 0 0 0 0 0
-0.23029908784733397 1.0887206341163482 -0.923721117485512 7.044940231997266e-15 5.131041962933388 -180 -29.6139078544018 -58.921336611199266 44.59343400704642 25.802397056290356 74.2101235546597 -39.47797918136223 -15.991754262734439 59.128066444328375 11.223963083128604 0 0 0 51.74354855582945 -60.26863531359299 -60.69828181104881 21.596690702005606 79.85651944290268 77.99386594946665 20.721633054057072 58.29620629971575 -3.246612769821355 0 0 0 -0.21396846706040382 1.0481442647509145 -0.043805187918652976 -1.1835596810403186 3.692441273671256 -0.1884782109556558 0 0 0 10.001094151845562 5.844877219051335 -17.424580456857004 -72.82636945866557 0.9365122887130827 -2.209633723759638 -43.494504848184214 -17.70598371394632 -6.00131060427838 -20.335049730858543 -46.856587626537745 -19.21824027076663 0 0 0 0 0 0 0 0 0 0 0 0 0 0 0 0 0 0 0 0 0 0 0 0 0 0 0 0 0 0 0 0 0 0 0 0 0 0 0 0 0 0 0 0 0 0 50.52383192473957 0 0 -75.61688800250603 0 0 0 0 0 0 0 0 0 0 -10.997340129291015 5.634497562899805 17.537688257099397 72.8619948655595 0.9708050158439655 2.209660835672158 44.804559317743404 -17.9035031977196 5.942117161493307 18.376282018753344 -46.45562240284743 20.37454212417601 0 0 0 0 0 0 0 0 0 0 0 0 0 0 0 0 0 0 0 0 0 0 0 0 0 0 0 0 0 0 0 0 0 0 0 0 0 0 0 0 0 0 0 0 0
